<?xml version="1.0" encoding="utf-8"?>
<svg viewBox="0 0 500 500" xmlns="http://www.w3.org/2000/svg" xmlns:bx="https://boxy-svg.com">
  <path d="M 165.416 107.047 H 362.137 A 26.487 26.487 0 0 1 388.624 133.534 V 355.127 A 26.487 26.487 0 0 1 362.137 381.614 H 165.416 A 26.487 26.487 0 0 1 138.929 355.127 V 133.534 A 26.487 26.487 0 0 1 165.416 107.047 Z M 171.929 150.034 V 338.627 A 9.987 9.987 0 0 0 181.916 348.614 H 345.637 A 9.987 9.987 0 0 0 355.624 338.627 V 150.034 A 9.987 9.987 0 0 0 345.637 140.047 H 181.916 A 9.987 9.987 0 0 0 171.929 150.034 Z" style="fill: rgb(216, 216, 216); stroke: rgb(0, 0, 0);" bx:shape="frame 138.929 107.047 249.695 274.567 33 33 26.487 26.487 26.487 26.487 1@4c6e6954"/>
  <rect x="270.278" y="149.378" width="75.041" height="72.126" style="fill: rgb(216, 216, 216); stroke: rgb(0, 0, 0);" rx="14.143" ry="14.143"/>
</svg>